# xmcd CD database file
#
# Track frame offsets:
#	150
#	14707
#	26138
#	34557
#	49157
#	64246
#	85532
#	95895
#	112855
#	122025
#	131333
#	141250
#	152483
#	171632
#	191124
#	203663
#	214962
#	227751
#	240676
#	255822
#
# Disc length: 3628 seconds
#
# Revision: 0
# Processed by: cddbd v1.5.2PL0 Copyright (c) Steve Scherf et al.
# Submitted via: CDex 1.70beta2
#
DISCID=190e2a14
DTITLE=Diverse - Trucker and Country Hits   CD1
DYEAR=2008
DGENRE=Country
TTITLE0=John Denver - Take Me Home Country Roads
TTITLE1=Don Gibson - Oh Lonesome Me
TTITLE2=Lorne Greene - Bonanza
TTITLE3=Lee Hazlewood - These Boots Are Made For Walking
TTITLE4=Anne Murray - Both Sides Now
TTITLE5=Olivia Newton John - Banks Of The Ohio
TTITLE6=Dave Dudley - Six Days On The Road
TTITLE7=Glen Campbell (live) - Southern Nights
TTITLE8=Frankie Laine - Rawhide
TTITLE9=Ronnie Hawkins - Hey Good Lookin'
TTITLE10=Willie Nelson - Healing Hands Of Time
TTITLE11=Roger Miller - King Of The Road
TTITLE12=Marty Robins - El Paso City
TTITLE13=Kenny Rogers - She Believes In Me
TTITLE14=Billy Joe Royal - Raindrops Keep Fallin' On My Head
TTITLE15=Charlie Pride - Help Me Make It Through The Night
TTITLE16=Conway Twitty - I Can't Stop Loving You
TTITLE17=Charlie Rich - The Most Beautiful Girl
TTITLE18=Billie Joe Spears - Blanket On The Ground
TTITLE19=Gordon Lightfood - Diddley Dee,Diddley Dee
EXTD=YEAR: 2008
EXTT0=
EXTT1=
EXTT2=
EXTT3=
EXTT4=
EXTT5=
EXTT6=
EXTT7=
EXTT8=
EXTT9=
EXTT10=
EXTT11=
EXTT12=
EXTT13=
EXTT14=
EXTT15=
EXTT16=
EXTT17=
EXTT18=
EXTT19=
PLAYORDER=
